<svg id="Layer_1" data-name="Layer 1" xmlns="http://www.w3.org/2000/svg" xmlns:xlink="http://www.w3.org/1999/xlink" viewBox="0 0 2001 1201"><defs><style>.cls-1{fill:none;}.cls-2{fill:#fff;stroke:#000;stroke-miterlimit:10;}.cls-3{fill:#8ab6ca;}.cls-4{clip-path:url(#clip-path);}.cls-5{fill:#041e41;}.cls-6{fill:#384463;}.cls-7{fill:#989cae;}.cls-8{fill:#676e88;}.cls-9{clip-path:url(#clip-path-2);}.cls-10{fill:#007298;}</style><clipPath id="clip-path" transform="translate(0.5 0.5)"><rect class="cls-1" x="1103.94" y="487.08" width="187.82" height="189.04"/></clipPath><clipPath id="clip-path-2" transform="translate(0.5 0.5)"><rect class="cls-1" x="708.24" y="487.08" width="187.82" height="189.04"/></clipPath></defs><title>headerIMG</title><rect class="cls-2" x="0.5" y="0.5" width="2000" height="1200"/><rect class="cls-3" x="906.46" y="487.57" width="187.82" height="189.04"/><rect class="cls-3" x="1104.45" y="487.57" width="187.82" height="189.04"/><rect class="cls-3" x="708.74" y="487.57" width="187.82" height="189.04"/><g class="cls-4"><polygon class="cls-5" points="1207.18 552.22 1184.44 539.01 1159.3 501.31 1159.3 551.67 1207.18 552.22"/><polygon class="cls-6" points="1231.81 590.99 1229.39 589.11 1207.18 552.22 1187.65 579.95 1231.81 590.99"/><polygon class="cls-7" points="1159.3 572.95 1159.3 572.95 1187.65 579.95 1207.18 552.22 1159.3 551.67 1159.3 572.95"/><polygon class="cls-6" points="1159.3 551.67 1159.3 501.31 1142.43 517.21 1158.22 527.43 1142.43 517.21 1146.45 547.63 1159.3 572.95 1159.3 551.67"/><polygon class="cls-7" points="1227.8 654.27 1227.8 654.27 1248.65 624.12 1204.24 657.5 1171.88 735.87 1227.8 654.27"/><polygon class="cls-6" points="1248.65 624.12 1263.11 613.35 1231.81 590.99 1204.24 657.5 1248.65 624.12"/><polygon class="cls-7" points="1159.3 572.95 1146.45 547.63 1135.76 536.6 1136.83 529.32 1129.34 530.66 1124.52 536.86 1142.17 568.63 1159.3 572.95"/><polygon class="cls-5" points="1225.38 715.95 1283.97 654 1248.65 624.12 1227.8 654.27 1225.38 715.95"/><polygon class="cls-7" points="1303.78 686.59 1283.97 654 1225.38 715.95 1303.78 686.59"/><polygon class="cls-6" points="1227.8 654.27 1171.88 735.87 1225.38 715.95 1227.8 654.27"/><polygon class="cls-5" points="1142.17 568.63 1147.26 593.14 1159.3 621.14 1159.3 572.95 1142.17 568.63"/><polygon class="cls-8" points="1159.3 572.95 1159.3 621.14 1187.65 579.95 1159.3 572.95"/><polygon class="cls-5" points="1193.55 606.88 1231.81 590.99 1187.65 579.95 1193.55 606.88"/><polygon class="cls-7" points="1187.65 579.95 1159.3 621.14 1193.55 606.88 1187.65 579.95"/><polygon class="cls-5" points="1159.3 621.14 1162.78 645.38 1158.22 688.21 1171.88 735.87 1204.24 657.5 1159.3 621.14"/><path class="cls-6" d="M1203.75,657l-32.37,78.36Z" transform="translate(0.5 0.5)"/><polygon class="cls-6" points="1204.24 657.5 1193.55 606.88 1159.3 621.14 1204.24 657.5"/><polygon class="cls-8" points="1204.24 657.5 1231.81 590.99 1193.55 606.88 1204.24 657.5"/><path class="cls-5" d="M1203.75,657l27.56-66.52Z" transform="translate(0.5 0.5)"/><path class="cls-5" d="M1203.75,657h0Z" transform="translate(0.5 0.5)"/></g><g class="cls-9"><path class="cls-5" d="M779.41,582.14a4.58,4.58,0,1,0,4.55,4.61v0h0A4.7,4.7,0,0,0,779.41,582.14ZM770,604.76a4.58,4.58,0,1,0,4.55,4.61v0h0a4.52,4.52,0,0,0-4.46-4.58H770Zm34.78-44.43a4.58,4.58,0,1,0,4.55,4.61v0A4.7,4.7,0,0,0,804.82,560.33Zm38.8-2.42a4.55,4.55,0,1,0-4.53,4.57h0a4.7,4.7,0,0,0,4.52-4.58h0Zm31.57-4.31a12.65,12.65,0,0,0-1.1-14.82c-2.94-3-10.43-.81-10.43-0.81,0.54-12.12-.8-26.12-8.83-35.55-5.62-6.73-15,8.08-19.26,14.54a200.11,200.11,0,0,1-15.48,18.32s-18.46-4.85-41.74,27.47c-18.26,25.33-36.94,31.24-48.72,45.51-4,5.12,5.35,11.31,13.65,12.93a101.39,101.39,0,0,0,15.81,1.07c-6.69,36.35-45.48,39.86-57.26,40.12h-0.27c4.55,50.9,48.43,61.4,94.18,56.55h-1.87v-54.4L813.94,643V577.83l16.32-16.16a9.88,9.88,0,0,1,4.55-12.93,9.76,9.76,0,0,1,12.84,4.58,9.64,9.64,0,0,1-4.46,12.88l-0.1,0a10.14,10.14,0,0,1-8.83-.27l-14.45,14.27v64.9l-20.07,21.27v51.7l2.94-.27,2.68-.27v-48.5l20.07-20.2V603.14l3.75-4.58A10,10,0,0,1,834,585.63c4.82-2.42,10.43,0,12.84,4.85s0,10.5-4.82,12.93a10.14,10.14,0,0,1-8.83-.27l-1.87,2.42v46l-20.07,19.93v45.59c11.77-1.35,23.28-2.69,33.71-6.46l0.27-.27c9.36-18,16-54.94,14.18-66.79-1.61-11-2.68-8.35-3.48-15.62-0.54-5.92,4.55-11-.54-23.43-2.68-6.73-2.41-11.58.8-21.54s15.78-24.53,19-29.38h0ZM746.5,704.4l-5.62-3.23V667.5l36.92-38v-7.81l-3.48-4a7.81,7.81,0,0,1-4.28,1.08,9.34,9.34,0,0,1-9.36-9.32s0-.07,0-0.11a9.36,9.36,0,0,1,18.73,0,7.94,7.94,0,0,1-1.07,4.31l5.08,5.92v12.66l-36.92,37.7V704.4h0Zm12.6,5.92c-1.87-.81-4-1.62-5.89-2.42V671.27l36.63-37.19v-30.4l-6.42-8.08a9.53,9.53,0,0,1-12.75-4.38l-0.09-.2A9.64,9.64,0,0,1,775,578.13l0.09,0a9.68,9.68,0,0,1,12.58,13.46l7.76,10.23v35l-36.65,37.16v36.35h0.31v0Zm48.4-136.24v67.3l-36.92,38v35c-1.87-.54-3.75-1.08-5.89-1.89V676.66l36.92-38v-64.9a9.62,9.62,0,1,1,12-6.33l0,0.14a9.31,9.31,0,0,1-6.11,6.51h0Zm34.78,20.47a4.55,4.55,0,1,0-4.55,4.58h0c2.68,0.27,4.55-1.89,4.55-4.58h0Z" transform="translate(0.5 0.5)"/></g><polygon class="cls-5" points="940.71 529.32 986.18 582.11 940.71 634.88 940.71 529.32"/><polygon class="cls-5" points="1060.04 634.88 1014.54 582.11 1060.04 529.32 1060.04 634.88"/><polygon class="cls-5" points="947.92 642.15 1000.37 596.38 1052.81 642.15 947.92 642.15"/><polygon class="cls-5" points="1052.81 522.04 1000.37 567.83 947.92 522.04 1052.81 522.04"/><path class="cls-10" d="M1263.94,317.69a93.23,93.23,0,0,0-131.85-.32l-0.32.32a90.14,90.14,0,0,0-27.29,66.52v91.87h21.4V389.86h134.31V384.2a80,80,0,0,0-1.61-15.89H1127.5a72.05,72.05,0,0,1,24.88-40.39,70.24,70.24,0,0,1,45.48-16.16,68.88,68.88,0,0,1,50.84,21.32,70,70,0,0,1,21.14,51.44v91.56h21.4V384.21A90.14,90.14,0,0,0,1263.94,317.69Z" transform="translate(0.5 0.5)"/><polygon class="cls-5" points="977.89 294.23 977.89 315.5 1037.3 315.5 1037.3 476.54 1058.42 476.54 1058.42 315.5 1121.84 315.5 1121.84 294.23 977.89 294.23"/><polygon class="cls-5" points="966.65 315.76 966.65 294.5 945.51 294.5 924.38 294.5 902.98 294.5 902.98 315.76 924.38 315.76 924.38 455.26 902.98 455.26 902.98 476.54 924.38 476.54 945.51 476.54 966.65 476.54 966.65 455.26 945.51 455.26 945.51 315.76 966.65 315.76"/><path class="cls-10" d="M880.81,294.26a91.52,91.52,0,0,0-81.07,49.55A88.86,88.86,0,0,0,766.56,308a90,90,0,0,0-47.62-13.73h-10.7V476.08H729.1v-160a69.24,69.24,0,0,1,42.81,23.7,68.11,68.11,0,0,1,17.39,46.59v89.71h20.87V386.36c0-35.28,25.42-65.17,59.93-70.28v160H891V294.26H880.81Z" transform="translate(0.5 0.5)"/></svg>